<svg xmlns="http://www.w3.org/2000/svg" width="120" height="114" viewBox="0 0 120 114">
  <g id="icon" transform="translate(-377 -262)">
    <g id="Group_1" data-name="Group 1" transform="translate(16.44)">
      <path id="Subtraction_2" data-name="Subtraction 2" d="M-1030.7,1196v-.5a14.523,14.523,0,0,0,10.7-14,14.523,14.523,0,0,0-10.7-14v-26.4h-18.6v-15.6h57v15.6h-18.8V1196h-19.6Z" transform="translate(1448 -863)" fill="#b4d924" stroke="rgba(0,0,0,0)" stroke-miterlimit="10" stroke-width="1"/>
      <path id="Subtraction_1" data-name="Subtraction 1" d="M-1019.48,1175.56a29.407,29.407,0,0,1-14.559-3.721,27.839,27.839,0,0,1-10.52-10.319,29.017,29.017,0,0,1-3.88-14.92,29.2,29.2,0,0,1,3.417-14.1h15.523v-13.134a30.377,30.377,0,0,1,10.02-1.646,29.6,29.6,0,0,1,14.6,3.68,27.349,27.349,0,0,1,10.44,10.28,29.255,29.255,0,0,1,3.839,14.92,29.255,29.255,0,0,1-3.839,14.92,27.554,27.554,0,0,1-10.481,10.319A29.41,29.41,0,0,1-1019.48,1175.56Zm0-43.44c-4.034,0-7.237,1.305-9.519,3.88s-3.44,6.141-3.44,10.6c0,4.406,1.157,7.946,3.44,10.52s5.485,3.88,9.519,3.88a12.083,12.083,0,0,0,9.481-3.92c2.309-2.6,3.479-6.126,3.479-10.48,0-4.46-1.171-8.026-3.479-10.6A12.144,12.144,0,0,0-1019.48,1132.12Z" transform="translate(1433 -828)" fill="#2a86e2" stroke="rgba(0,0,0,0)" stroke-miterlimit="10" stroke-width="1"/>
    </g>
    <text id="Online_Test" data-name="Online Test" transform="translate(377 369)" fill="#2a86e2" font-size="20" font-family="Poppins-Medium, Poppins" font-weight="500"><tspan x="0" y="0">ONLINE </tspan><tspan y="0" fill="#b4d924">TEST</tspan></text>
  </g>
</svg>
